<?xml version="1.0" encoding="utf-8"?>
<!-- Generator: Adobe Illustrator 15.1.0, SVG Export Plug-In . SVG Version: 6.00 Build 0)  -->
<!DOCTYPE svg PUBLIC "-//W3C//DTD SVG 1.1//EN" "http://www.w3.org/Graphics/SVG/1.1/DTD/svg11.dtd">
<svg version="1.1" id="Ebene_1" xmlns="http://www.w3.org/2000/svg" xmlns:xlink="http://www.w3.org/1999/xlink" 
	 viewBox="-35 65 300 100" xml:space="preserve">
<path d="M4.77,131.77c3.15-1.79,4.73-4.61,4.73-8.47V85h-13v38.37c0,3.6-0.89,6.1-2.67,7.5c-1.78,1.43-4.61,2.13-8.45,2.13h-12.86v2
	h12.65h4.17C-3.53,134.62,1.61,133.55,4.77,131.77z"/>
<path d="M69.42,130.83c5.72-2.78,8.58-6.21,8.58-10.27c0-1.34-0.33-2.69-0.97-4c-1.67-3.17-4.62-5.76-8.87-7.78
	c-4.63-2.14-11.38-3.97-20.24-5.47c-3.15-0.5-5.62-1-7.42-1.5c-1.81-0.48-3.41-1.03-4.78-1.65c-3.16-1.3-4.72-3.1-4.72-5.39
	c0-1.35,0.7-2.69,2.14-4.04c1.44-1.32,3.41-2.42,5.91-3.26C42.09,86.5,45.42,86,49.03,86c4.53,0,8.85,0.83,12.91,2.48
	c2.78,1.22,4.86,2.63,6.25,4.24l5.11-1.1l-1.11-1.09c-2.61-2.17-5.94-3.8-9.97-4.89C58.19,84.55,53.34,84,47.69,84
	c-8.36,0-15.24,1.22-20.61,3.66C21.69,90.09,19,93.05,19,96.55c0,0.7,0.05,1.22,0.14,1.54c0.09,0.33,0.28,0.82,0.56,1.47
	c1.39,2.86,3.91,5.11,7.55,6.74c3.63,1.64,10.48,3.53,20.55,5.67c5.22,1.12,9.03,2.34,11.47,3.65c2.42,1.32,4.09,3.02,5.03,5.11
	c0.47,1.08,0.7,2.02,0.7,2.8c0,2.81-1.84,5.09-5.52,6.84c-3.67,1.75-8.43,2.63-14.29,2.63c-8.47,0-15.31-2.34-20.52-7.06l-0.97-0.97
	l-0.28-0.42L23,124l-5,0.61l1,0.69v0.48c1.11,1.41,2.88,2.88,5.3,4.38l2.65,1.36c5.3,2.32,12.22,3.48,20.78,3.48
	C56.47,135,63.7,133.61,69.42,130.83z"/>
<polygon points="100.32,135 100.32,99 94.07,102 87.32,99 87.32,135 "/>
<path d="M197,135v-33.42c0-1.28-0.89-2.38-2.66-3.25c-1.78-0.88-3.9-1.33-6.39-1.33c-1.06,0-2.12,0.12-3.17,0.36
	c-2.01,0.47-3.73,1.26-5.17,2.37l-1.34,1.39l-24.3,25.54l-22.55-24.79c-1.34-1.96-3.62-3.2-6.83-3.68c-1.25-0.13-2.2-0.19-2.82-0.19
	c-5.19,0-7.77,1.39-7.77,4.14V135h4v-25.94c0-0.75,0.05-1.37,0.14-1.84c0.09-0.47,0.41-0.86,0.92-1.14
	c0.91-0.33,1.75-0.36,2.57-0.08c0.59,0.28,1,0.59,1.2,0.91l1.81,2.32l25.63,26.52l26.28-27.11l0.59-0.59
	c1.78-1.44,3.28-2.18,4.47-2.18c0.59,0,1.14,0.13,1.64,0.36c0.5,0.24,0.75,0.52,0.75,0.83v2.17V135H197z"/>
<polygon points="258.16,135 258.16,133 223.5,133 223.5,110 255.08,110 255.08,108 223.5,108 223.5,87 258.16,87 258.16,85 
	209.5,85 209.5,135 "/>
<g class="cube">
	<polygon points="92.851,82.591 80.253,75.677 80.18,75.718 80.18,89.968 92.851,97 	"/>
	<polygon points="94.79,82.591 107.387,75.677 107.46,75.718 107.46,89.968 94.79,97 	"/>
	<polygon points="93.809,67.21 106.646,74.255 93.809,81.301 80.972,74.255 	"/>
</g>
</svg>
