<?xml version="1.0" encoding="UTF-8" standalone="no"?>
<!DOCTYPE svg PUBLIC "-//W3C//DTD SVG 1.0//EN" "http://www.w3.org/TR/2001/REC-SVG-20010904/DTD/svg10.dtd">
<!-- Generated by Microsoft Visio 11.0, SVG Export, v1.0 MDD.svg Page-1 -->
<svg xmlns="http://www.w3.org/2000/svg" xmlns:xlink="http://www.w3.org/1999/xlink" xmlns:ev="http://www.w3.org/2001/xml-events"
		xmlns:v="http://schemas.microsoft.com/visio/2003/SVGExtensions/" width="4.23243in" height="1.89643in"
		viewBox="0 0 304.735 136.543" xml:space="preserve" color-interpolation-filters="sRGB" class="st8">
	<v:documentProperties v:langID="1033" v:metric="true" v:viewMarkup="false"/>

	<style type="text/css">
	<![CDATA[
		.st1 {fill:#dde2cd;stroke:none;stroke-linecap:round;stroke-linejoin:round;stroke-width:0.24}
		.st2 {fill:#000000;font-family:Calibri;font-size:0.666664em}
		.st3 {font-size:1em}
		.st4 {fill:#dde2cd;stroke:#000000;stroke-linecap:round;stroke-linejoin:round;stroke-width:0.24}
		.st5 {fill:#a5a5a5;stroke:#000000;stroke-linecap:round;stroke-linejoin:round;stroke-width:0.24}
		.st6 {fill:none;stroke:none;stroke-linecap:round;stroke-linejoin:round;stroke-width:0.75}
		.st7 {fill:#000000;font-family:Calibri;font-size:0.499992em}
		.st8 {fill:none;fill-rule:evenodd;font-size:12px;overflow:visible;stroke-linecap:square;stroke-miterlimit:3}
	]]>
	</style>

	<g v:mID="0" v:index="1" v:groupContext="foregroundPage">
		<title>Page-1</title>
		<v:pageProperties v:drawingScale="0.0393701" v:pageScale="0.0393701" v:drawingUnits="24" v:shadowOffsetX="8.50394"
				v:shadowOffsetY="-8.50394"/>
		<g id="shape16-1" v:mID="16" v:groupContext="shape" transform="translate(191.818,-0.24)">
			<title>Rectangle.16</title>
			<desc>Different Platforms</desc>
			<v:userDefs>
				<v:ud v:nameU="visVersion" v:val="VT0(14):26"/>
			</v:userDefs>
			<v:textBlock v:margins="rect(4,4,4,4)" v:tabSpace="42.5197" v:verticalAlign="0"/>
			<v:textRect cx="20.1969" cy="68.5115" width="40.4" height="136.063"/>
			<rect x="0" y="0.48" width="40.3937" height="136.063" class="st1"/>
			<text x="5.56" y="11.68" class="st2" v:langID="1031"><v:paragraph v:horizAlign="1"/><v:tabList/>Different <tspan
						x="4.47" dy="1.2em" class="st3">Platforms</tspan></text>		</g>
		<g id="shape15-5" v:mID="15" v:groupContext="shape" transform="translate(80.5578,-0.24)">
			<title>Rectangle.15</title>
			<desc>Different Solutions (Design Choices)</desc>
			<v:userDefs>
				<v:ud v:nameU="visVersion" v:val="VT0(14):26"/>
			</v:userDefs>
			<v:textBlock v:margins="rect(4,4,4,4)" v:tabSpace="42.5197" v:verticalAlign="0"/>
			<v:textRect cx="19.1339" cy="69.2202" width="38.27" height="134.646"/>
			<rect x="0" y="1.89732" width="38.2677" height="134.646" class="st1"/>
			<text x="4.5" y="13.1" class="st2" v:langID="1031"><v:paragraph v:horizAlign="1"/><v:tabList/>Different <tspan x="4.13"
						dy="1.2em" class="st3">Solutions </tspan><tspan x="7" dy="1.2em" class="st3">(</tspan>Design <tspan
						x="5.41" dy="1.2em" class="st3">Choices</tspan>)</text>		</g>
		<g id="shape2-11" v:mID="2" v:groupContext="shape" transform="translate(1.18767,-27.1691)">
			<title>Star 7</title>
			<desc>Conceptual Model</desc>
			<v:userDefs>
				<v:ud v:nameU="visVersion" v:val="VT0(14):26"/>
			</v:userDefs>
			<v:textBlock v:margins="rect(4,4,4,4)" v:tabSpace="42.5197"/>
			<v:textRect cx="36.8504" cy="99.6926" width="49.14" height="49.1339"/>
			<path d="M26.63 79.83 L6.54 77.44 L13.28 96.23 L-0.95 110.24 L17.95 116.68 L20.03 136.54 L36.85 125.79 L53.67 136.54
						 L55.75 116.68 L74.65 110.24 L60.42 96.23 L67.16 77.44 L47.34 79.83 L36.85 62.84 L26.63 79.83 Z"
					class="st4"/>
			<text x="18.45" y="97.29" class="st2" v:langID="1031"><v:paragraph v:horizAlign="1"/><v:tabList/>Conceptual <tspan
						x="26.31" dy="1.2em" class="st3">Model</tspan></text>		</g>
		<g id="shape4-15" v:mID="4" v:groupContext="shape" transform="translate(154.492,-13.2173) rotate(18.4349) scale(-1,1)">
			<title>45 degree single.4</title>
			<v:userDefs>
				<v:ud v:nameU="visVersion" v:val="VT0(14):26"/>
			</v:userDefs>
			<path d="M0 130.72 L5.83 124.89 L5.83 128.74 L26.89 128.74 L26.89 132.7 L5.83 132.7 L5.83 136.54 L0 130.72 Z"
					class="st5"/>
		</g>
		<g id="shape5-17" v:mID="5" v:groupContext="shape" transform="translate(237.881,-99.4526)">
			<title>Rectangle</title>
			<desc>Implementation Model 1-1</desc>
			<v:userDefs>
				<v:ud v:nameU="visVersion" v:val="VT0(14):26"/>
			</v:userDefs>
			<v:textBlock v:margins="rect(4,4,4,4)" v:tabSpace="42.5197"/>
			<v:textRect cx="32.5984" cy="124.496" width="65.2" height="24.0945"/>
			<rect x="0" y="112.449" width="65.1969" height="24.0945" class="st4"/>
			<text x="6.37" y="122.1" class="st2" v:langID="1031"><v:paragraph v:horizAlign="1"/><v:tabList/>Implementation <tspan
						x="15.88" dy="1.2em" class="st3">Model </tspan>1-1</text>		</g>
		<g id="shape3-21" v:mID="3" v:groupContext="shape" transform="translate(60.0672,-59.6826) rotate(-23.9625) scale(-1,1)">
			<title>45 degree single.3</title>
			<v:userDefs>
				<v:ud v:nameU="visVersion" v:val="VT0(14):26"/>
			</v:userDefs>
			<path d="M0 130.72 L5.83 124.89 L5.83 128.74 L27.92 128.74 L27.92 132.7 L5.83 132.7 L5.83 136.54 L0 130.72 Z"
					class="st5"/>
		</g>
		<g id="shape7-23" v:mID="7" v:groupContext="shape" transform="translate(123.786,-70.7518)">
			<title>Rounded rectangle</title>
			<desc>Design Model 1</desc>
			<v:userDefs>
				<v:ud v:nameU="visVersion" v:val="VT0(14):26"/>
			</v:userDefs>
			<v:textBlock v:margins="rect(4,4,4,4)" v:tabSpace="42.5197"/>
			<v:textRect cx="31.8898" cy="123.61" width="63.78" height="25.8661"/>
			<path d="M50.85 136.54 A12.9332 12.9332 -180 0 0 63.78 123.61 A12.9332 12.9332 -180 0 0 50.85 110.68 L12.93 110.68 A12.9332
						 12.9332 -180 0 0 0 123.61 A12.9332 12.9332 -180 0 0 12.93 136.54 L50.85 136.54 Z" class="st4"/>
			<text x="6.6" y="126.01" class="st2" v:langID="1031"><v:paragraph v:horizAlign="1"/><v:tabList/>Design Model 1</text>		</g>
		<g id="shape6-26" v:mID="6" v:groupContext="shape" transform="translate(123.786,-3.07465)">
			<title>Rounded rectangle.6</title>
			<desc>Design Model 2</desc>
			<v:userDefs>
				<v:ud v:nameU="visVersion" v:val="VT0(14):26"/>
			</v:userDefs>
			<v:textBlock v:margins="rect(4,4,4,4)" v:tabSpace="42.5197"/>
			<v:textRect cx="31.8898" cy="123.61" width="63.78" height="25.8661"/>
			<path d="M50.85 136.54 A12.9332 12.9332 -180 0 0 63.78 123.61 A12.9332 12.9332 -180 0 0 50.85 110.68 L12.93 110.68 A12.9332
						 12.9332 -180 0 0 0 123.61 A12.9332 12.9332 -180 0 0 12.93 136.54 L50.85 136.54 Z" class="st4"/>
			<text x="6.6" y="126.01" class="st2" v:langID="1031"><v:paragraph v:horizAlign="1"/><v:tabList/>Design Model 2</text>		</g>
		<g id="shape8-29" v:mID="8" v:groupContext="shape" transform="translate(172.036,-86.6118) rotate(-23.9625) scale(-1,1)">
			<title>45 degree single.8</title>
			<v:userDefs>
				<v:ud v:nameU="visVersion" v:val="VT0(14):26"/>
			</v:userDefs>
			<path d="M0 130.72 L5.83 124.89 L5.83 128.74 L27.92 128.74 L27.92 132.7 L5.83 132.7 L5.83 136.54 L0 130.72 Z"
					class="st5"/>
		</g>
		<g id="shape9-31" v:mID="9" v:groupContext="shape" transform="translate(237.881,-70.3975)">
			<title>Rectangle.9</title>
			<desc>Implementation Model 1-2</desc>
			<v:userDefs>
				<v:ud v:nameU="visVersion" v:val="VT0(14):26"/>
			</v:userDefs>
			<v:textBlock v:margins="rect(4,4,4,4)" v:tabSpace="42.5197"/>
			<v:textRect cx="32.5984" cy="124.496" width="65.2" height="24.0945"/>
			<rect x="0" y="112.449" width="65.1969" height="24.0945" class="st4"/>
			<text x="6.37" y="122.1" class="st2" v:langID="1031"><v:paragraph v:horizAlign="1"/><v:tabList/>Implementation <tspan
						x="15.88" dy="1.2em" class="st3">Model </tspan>1-2</text>		</g>
		<g id="shape10-35" v:mID="10" v:groupContext="shape" transform="translate(237.881,-39.925)">
			<title>Rectangle.10</title>
			<desc>Implementation Model 1-3</desc>
			<v:userDefs>
				<v:ud v:nameU="visVersion" v:val="VT0(14):26"/>
			</v:userDefs>
			<v:textBlock v:margins="rect(4,4,4,4)" v:tabSpace="42.5197"/>
			<v:textRect cx="32.5984" cy="124.496" width="65.2" height="24.0945"/>
			<rect x="0" y="112.449" width="65.1969" height="24.0945" class="st4"/>
			<text x="6.37" y="122.1" class="st2" v:langID="1031"><v:paragraph v:horizAlign="1"/><v:tabList/>Implementation <tspan
						x="15.88" dy="1.2em" class="st3">Model </tspan>1-3</text>		</g>
		<g id="shape11-39" v:mID="11" v:groupContext="shape" transform="translate(227.959,-75.2008) scale(-1,1)">
			<title>45 degree single.11</title>
			<v:userDefs>
				<v:ud v:nameU="visVersion" v:val="VT0(14):26"/>
			</v:userDefs>
			<path d="M0 130.72 L5.83 124.89 L5.83 128.74 L26.93 128.74 L26.93 132.7 L5.83 132.7 L5.83 136.54 L0 130.72 Z"
					class="st5"/>
		</g>
		<g id="shape12-41" v:mID="12" v:groupContext="shape" transform="translate(286.285,-34.4982) rotate(27.8973) scale(-1,1)">
			<title>45 degree single.12</title>
			<v:userDefs>
				<v:ud v:nameU="visVersion" v:val="VT0(14):26"/>
			</v:userDefs>
			<path d="M0 130.72 L5.83 124.89 L5.83 128.74 L27.26 128.74 L27.26 132.7 L5.83 132.7 L5.83 136.54 L0 130.72 Z"
					class="st5"/>
		</g>
		<g id="shape13-43" v:mID="13" v:groupContext="shape" transform="translate(239.298,-3.07465)">
			<title>Rectangle.13</title>
			<desc>Implementation Model 2-1</desc>
			<v:userDefs>
				<v:ud v:nameU="visVersion" v:val="VT0(14):26"/>
			</v:userDefs>
			<v:textBlock v:margins="rect(4,4,4,4)" v:tabSpace="42.5197"/>
			<v:textRect cx="32.5984" cy="124.496" width="65.2" height="24.0945"/>
			<rect x="0" y="112.449" width="65.1969" height="24.0945" class="st4"/>
			<text x="6.37" y="122.1" class="st2" v:langID="1031"><v:paragraph v:horizAlign="1"/><v:tabList/>Implementation <tspan
						x="15.88" dy="1.2em" class="st3">Model </tspan>2-1</text>		</g>
		<g id="shape14-47" v:mID="14" v:groupContext="shape" transform="translate(229.377,-11.4213) scale(-1,1)">
			<title>45 degree single.14</title>
			<v:userDefs>
				<v:ud v:nameU="visVersion" v:val="VT0(14):26"/>
			</v:userDefs>
			<path d="M0 130.72 L5.83 124.89 L5.83 128.74 L28.35 128.74 L28.35 132.7 L5.83 132.7 L5.83 136.54 L0 130.72 Z"
					class="st5"/>
		</g>
	</g>
</svg>
