<?xml version="1.0" encoding="UTF-8" standalone="no"?>
<svg
   width="255"
   height="300"
   viewBox="0 30 255 300"
   font-family="Lucida Grande,Lucida Sans Unicode,Arial,Helvetica,Arial"
   font-size="12"
   overflow="hidden"
   version="1.1"
   id="svg135"
   sodipodi:docname="image2b.svg"
   inkscape:version="1.1.2 (0a00cf5339, 2022-02-04, custom)"
   xmlns:inkscape="http://www.inkscape.org/namespaces/inkscape"
   xmlns:sodipodi="http://sodipodi.sourceforge.net/DTD/sodipodi-0.dtd"
   xmlns="http://www.w3.org/2000/svg"
   xmlns:svg="http://www.w3.org/2000/svg">
  <sodipodi:namedview
     id="namedview137"
     pagecolor="#ffffff"
     bordercolor="#666666"
     borderopacity="1.0"
     inkscape:pageshadow="2"
     inkscape:pageopacity="0.0"
     inkscape:pagecheckerboard="0"
     showgrid="false"
     inkscape:zoom="2.4356725"
     inkscape:cx="127.48019"
     inkscape:cy="171.20528"
     inkscape:window-width="1920"
     inkscape:window-height="1025"
     inkscape:window-x="1920"
     inkscape:window-y="32"
     inkscape:window-maximized="1"
     inkscape:current-layer="svg135" />
  <defs
     id="defs5">
    <clipPath
       id="highcharts-sv1n8si-8710-">
      <rect
         x="0"
         y="0"
         width="168"
         height="201"
         fill="none"
         id="rect2" />
    </clipPath>
  </defs>
  <rect
     x="0"
     y="0"
     rx="0"
     ry="0"
     width="255"
     height="342"
     fill="#FFFFFF"
     id="rect7" />
  <rect
     x="72"
     y="43"
     width="168"
     height="201"
     fill="none"
     id="rect9" />
  <g
     id="g17">
    <path
       d="M71.5 43 71.5 244"
       fill="none"
       id="path11" />
    <path
       d="M143.5 43 143.5 244"
       fill="none"
       id="path13" />
    <path
       d="M216.5 43 216.5 244"
       fill="none"
       id="path15" />
  </g>
  <g
     id="g29">
    <path
       d="M72 244.5 240 244.5"
       stroke="#E6E6E6"
       fill="none"
       id="path19" />
    <path
       d="M72 194.5 240 194.5"
       stroke="#E6E6E6"
       fill="none"
       id="path21" />
    <path
       d="M72 144.5 240 144.5"
       stroke="#E6E6E6"
       fill="none"
       id="path23" />
    <path
       d="M72 93.5 240 93.5"
       stroke="#E6E6E6"
       fill="none"
       id="path25" />
    <path
       d="M72 42.5 240 42.5"
       stroke="#E6E6E6"
       fill="none"
       id="path27" />
  </g>
  <rect
     x="72"
     y="43"
     width="168"
     height="201"
     fill="none"
     id="rect31" />
  <g
     id="g45">
    <path
       d="M71.5 244 71.5 254"
       stroke="#CCD6EB"
       fill="none"
       id="path33" />
    <path
       d="M143.5 244 143.5 254"
       stroke="#CCD6EB"
       fill="none"
       id="path35" />
    <path
       d="M216.5 244 216.5 254"
       stroke="#CCD6EB"
       fill="none"
       id="path37" />
    <text
       color="#666666"
       fill="#666666"
       font-size="10"
       text-anchor="middle"
       x="156"
       y="280.609"
       id="text41"><tspan
         id="tspan39">time</tspan></text>
    <path
       d="M72 244.5 240 244.5"
       stroke="#CCD6EB"
       fill="none"
       id="path43" />
  </g>
  <g
     id="g53">
    <text
       color="#666666"
       fill="#666666"
       font-size="10"
       text-anchor="middle"
       transform="matrix(-1.83697e-16 -1 1 -1.83697e-16 -121.781 165.219)"
       x="21.7188"
       y="143.5"
       id="text49"><tspan
         id="tspan47">% of nodes</tspan></text>
    <path
       d="M72 43 72 244"
       fill="none"
       id="path51" />
  </g>
  <g
     id="g73">
    <g
       clip-path="url(#highcharts-sv1n8si-8710-)"
       transform="translate(72 43)"
       id="g57">
      <path
         d="M0 2.01 1.44828 4.02 2.89655 8.71 4.34483 11.39 5.7931 14.07 7.24138 16.75 8.68966 19.43 10.1379 25.46 11.5862 30.15 13.0345 40.2 14.4828 42.21 15.931 48.24 17.3793 54.94 18.8276 65.66 20.2759 75.71 21.7241 83.08 23.1724 92.46 24.6207 95.81 26.069 103.18 27.5172 109.21 28.9655 115.91 30.4138 123.95 31.8621 134.67 33.3103 138.02 34.7586 144.72 36.2069 142.71 37.6552 148.07 39.1034 156.78 40.5517 161.47 42 163.48 43.4483 162.14 44.8966 167.5 46.3448 169.51 47.7931 172.19 49.2414 173.53 50.6897 175.54 52.1379 178.89 53.5862 180.23 55.0345 177.55 56.4828 178.22 57.931 177.55 59.3793 176.21 60.8276 177.55 62.2759 176.88 63.7241 178.22 65.1724 177.55 66.6207 176.88 68.069 174.87 69.5172 173.53 70.9655 174.87 72.4138 172.19 73.8621 172.19 75.3103 172.86 76.7586 176.21 78.2069 176.88 79.6552 175.54 81.1034 174.2 82.5517 172.19 84 172.19 85.4483 172.86 86.8966 172.86 88.3448 171.52 89.7931 171.52 91.2414 171.52 92.6897 171.52 94.1379 170.85 95.5862 171.52 97.0345 172.86 98.4828 172.19 99.931 171.52 101.379 170.85 102.828 171.52 104.276 172.19 105.724 171.52 107.172 171.52 108.621 172.19 110.069 172.19 111.517 172.19 112.966 172.86 114.414 172.86 115.862 173.53 117.31 174.2 118.759 174.2 120.207 174.2 121.655 173.53 123.103 173.53 124.552 173.53 126 173.53 127.448 173.53 128.897 173.53 130.345 173.53 131.793 173.53 133.241 173.53 134.69 172.86 136.138 172.86 137.586 172.86 139.034 172.19"
         stroke="#345DA9"
         stroke-width="2"
         stroke-linecap="round"
         stroke-linejoin="round"
         fill="none"
         id="path55" />
    </g>
    <g
       transform="translate(72 43)"
       id="g59" />
    <g
       clip-path="url(#highcharts-sv1n8si-8710-)"
       transform="translate(72 43)"
       id="g63">
      <path
         d="M0 198.99 1.44828 196.98 2.89655 192.29 4.34483 190.28 5.7931 188.94 7.24138 186.26 8.68966 184.25 10.1379 179.56 11.5862 174.87 13.0345 166.16 14.4828 164.82 15.931 162.14 17.3793 160.13 18.8276 151.42 20.2759 148.07 21.7241 144.05 23.1724 138.02 24.6207 138.69 26.069 136.01 27.5172 131.99 28.9655 130.65 30.4138 125.96 31.8621 121.27 33.3103 121.94 34.7586 117.92 36.2069 126.63 37.6552 125.96 39.1034 121.94 40.5517 119.93 42 124.62 43.4483 129.98 44.8966 127.97 46.3448 129.98 47.7931 131.32 49.2414 133.33 50.6897 135.34 52.1379 137.35 53.5862 138.69 55.0345 144.72 56.4828 147.4 57.931 150.75 59.3793 152.76 60.8276 154.1 62.2759 156.78 63.7241 155.44 65.1724 156.78 66.6207 159.46 68.069 164.15 69.5172 165.49 70.9655 166.83 72.4138 174.2 73.8621 176.88 75.3103 176.88 76.7586 175.54 78.2069 177.55 79.6552 178.89 81.1034 180.23 82.5517 184.25 84 184.25 85.4483 184.25 86.8966 185.59 88.3448 188.27 89.7931 188.27 91.2414 188.94 92.6897 189.61 94.1379 190.95 95.5862 191.62 97.0345 191.62 98.4828 192.29 99.931 192.96 101.379 193.63 102.828 192.96 104.276 192.96 105.724 194.3 107.172 195.64 108.621 194.97 110.069 195.64 111.517 195.64 112.966 194.97 114.414 194.97 115.862 194.3 117.31 194.97 118.759 195.64 120.207 195.64 121.655 196.98 123.103 197.65 124.552 198.32 126 198.32 127.448 198.99 128.897 198.99 130.345 198.99 131.793 198.99 133.241 199.66 134.69 200.33 136.138 200.33 137.586 200.33 139.034 201"
         stroke="#D73229"
         stroke-width="2"
         stroke-linecap="round"
         stroke-linejoin="round"
         fill="none"
         id="path61" />
    </g>
    <g
       transform="translate(72 43)"
       id="g65" />
    <g
       clip-path="url(#highcharts-sv1n8si-8710-)"
       transform="translate(72 43)"
       id="g69">
      <path
         d="M0 201 1.44828 201 2.89655 201 4.34483 200.33 5.7931 198.99 7.24138 198.99 8.68966 198.32 10.1379 196.98 11.5862 196.98 13.0345 195.64 14.4828 194.97 15.931 191.62 17.3793 186.93 18.8276 184.92 20.2759 178.22 21.7241 174.87 23.1724 171.52 24.6207 167.5 26.069 162.81 27.5172 160.8 28.9655 155.44 30.4138 152.09 31.8621 146.06 33.3103 142.04 34.7586 139.36 36.2069 132.66 37.6552 127.97 39.1034 123.28 40.5517 120.6 42 113.9 43.4483 109.88 44.8966 106.53 46.3448 102.51 47.7931 98.49 49.2414 95.14 50.6897 91.12 52.1379 85.76 53.5862 83.08 55.0345 79.73 56.4828 76.38 57.931 73.7 59.3793 73.03 60.8276 70.35 62.2759 68.34 63.7241 68.34 65.1724 67.67 66.6207 65.66 68.069 62.98 69.5172 62.98 70.9655 60.3 72.4138 55.61 73.8621 52.93 75.3103 52.26 76.7586 50.25 78.2069 47.57 79.6552 47.57 81.1034 47.57 82.5517 45.56 84 45.56 85.4483 44.89 86.8966 43.55 88.3448 42.21 89.7931 42.21 91.2414 41.54 92.6897 40.87 94.1379 40.2 95.5862 38.86 97.0345 37.52 98.4828 37.52 99.931 37.52 101.379 37.52 102.828 37.52 104.276 36.85 105.724 36.18 107.172 34.84 108.621 34.84 110.069 34.17 111.517 34.17 112.966 34.17 114.414 34.17 115.862 34.17 117.31 32.83 118.759 32.16 120.207 32.16 121.655 31.49 123.103 30.82 124.552 30.15 126 30.15 127.448 29.48 128.897 29.48 130.345 29.48 131.793 29.48 133.241 28.81 134.69 28.81 136.138 28.81 137.586 28.81 139.034 28.81"
         stroke="#8D8D8D"
         stroke-width="2"
         stroke-linecap="round"
         stroke-linejoin="round"
         fill="none"
         id="path67" />
    </g>
    <g
       transform="translate(72 43)"
       id="g71" />
  </g>
  <text
     color="#666666"
     fill="#666666"
     text-anchor="middle"
     x="128"
     y="42"
     id="text79" />
  <text
     color="#666666"
     fill="#666666"
     x="15"
     y="344"
     id="text81" />
  <g
     transform="translate(31 291)"
     id="g113">
    <rect
       x="0"
       y="0"
       rx="0"
       ry="0"
       width="193"
       height="41"
       fill="none"
       id="rect83" />
    <g
       id="g111">
      <g
         id="g109">
        <g
           transform="translate(8 3)"
           id="g91">
          <path
             d="M0 10 16 10"
             stroke="#345DA9"
             stroke-width="2"
             fill="none"
             id="path85" />
          <text
             color="#333333"
             fill="#333333"
             font-weight="700"
             font-size="10"
             x="21"
             y="13"
             id="text89"><tspan
               id="tspan87">susceptible</tspan></text>
        </g>
        <g
           transform="translate(106.609 3)"
           id="g99">
          <path
             d="M0 10 16 10"
             stroke="#D73229"
             stroke-width="2"
             fill="none"
             id="path93" />
          <text
             color="#333333"
             fill="#333333"
             font-weight="700"
             font-size="10"
             x="21"
             y="13"
             id="text97"><tspan
               id="tspan95">infected</tspan></text>
        </g>
        <g
           transform="translate(8 18)"
           id="g107">
          <path
             d="M0 10 16 10"
             stroke="#8D8D8D"
             stroke-width="2"
             fill="none"
             id="path101" />
          <text
             color="#333333"
             fill="#333333"
             font-weight="700"
             font-size="10"
             x="21"
             y="13"
             id="text105"><tspan
               id="tspan103">resistant</tspan></text>
        </g>
      </g>
    </g>
  </g>
  <g
     id="g121">
    <text
       color="#666666"
       fill="#666666"
       font-size="9"
       text-anchor="middle"
       x="72"
       y="262"
       id="text115">0</text>
    <text
       color="#666666"
       fill="#666666"
       font-size="9"
       text-anchor="middle"
       x="144.414"
       y="262"
       id="text117">50</text>
    <text
       color="#666666"
       fill="#666666"
       font-size="9"
       text-anchor="middle"
       x="216.828"
       y="262"
       id="text119">100</text>
  </g>
  <g
     id="g133">
    <text
       color="#666666"
       fill="#666666"
       font-size="9"
       text-anchor="end"
       x="57"
       y="247"
       id="text123">0</text>
    <text
       color="#666666"
       fill="#666666"
       font-size="9"
       text-anchor="end"
       x="57"
       y="197"
       id="text125">25</text>
    <text
       color="#666666"
       fill="#666666"
       font-size="9"
       text-anchor="end"
       x="57"
       y="147"
       id="text127">50</text>
    <text
       color="#666666"
       fill="#666666"
       font-size="9"
       text-anchor="end"
       x="57"
       y="96"
       id="text129">75</text>
    <text
       color="#666666"
       fill="#666666"
       font-size="9"
       text-anchor="end"
       x="57"
       y="46"
       id="text131">100</text>
  </g>
</svg>
